<svg xmlns="http://www.w3.org/2000/svg" width="24" height="24"><path d="M20 16.78c.002-1.8.003-2.812 0-4.027-.001-.417.284-.638.567-.638.246 0 .49.168.538.52.19 1.412.411 2.816.547 3.146.042.099.113.141.185.141a.224.224 0 0 0 .206-.284c-.255-1.069-.493-2.519-.607-3.334 1.904 1.854 2.314 2.005 2.192 3.548-.089 1.129-.52 2.508.373 4.255L21.438 21a10.415 10.415 0 0 0-.226-.933c-.515-1.721-1.214-1.752-1.212-3.287zM3.433 12.115c-.246 0-.49.168-.538.52-.19 1.412-.411 2.816-.547 3.146-.042.099-.113.141-.185.141a.224.224 0 0 1-.206-.284c.255-1.069.493-2.519.607-3.334C.66 14.158.25 14.309.372 15.852c.09 1.128.521 2.507-.372 4.254L2.562 21c.062-.314.138-.637.226-.933.515-1.721 1.214-1.752 1.212-3.287-.002-1.8-.003-2.812 0-4.027.001-.418-.285-.638-.567-.638zM5 12.757zm14.001 2.637c-2.354.194-4.35.62-6.001 1.245V6.763l.057-.036C14.368 5.911 16.4 5.366 19 5.124v7.633a1.653 1.653 0 0 1 .469-1.186A1.535 1.535 0 0 1 21 11.18V3c-3.438.105-6.796.658-9 2.03C9.796 3.658 6.438 3.105 3 3v8.18a1.537 1.537 0 0 1 1.531.391c.304.305.471.726.469 1.184V5.124c2.6.242 4.632.788 5.943 1.604l.057.035v9.876c-1.651-.626-3.645-1.052-6-1.246v1.385c0 .234-.021.431-.046.622 2.249.193 4.372.615 6.046 1.381a2.396 2.396 0 0 0 2 0c1.675-.766 3.798-1.188 6.046-1.381a4.58 4.58 0 0 1-.046-.621l.001-1.385zM7 12.968c1.088.299 2.122.64 3 .968V15a25.904 25.904 0 0 0-3-1.015v-1.017zm0-1.014c1.121.31 2.177.67 3 1.015v-1.064a35.914 35.914 0 0 0-3-.968v1.017zm0-5.09v1.017c1.121.311 2.177.67 3 1.015V7.832a35.914 35.914 0 0 0-3-.968zm0 3.058c1.121.31 2.177.67 3 1.015V9.874a35.914 35.914 0 0 0-3-.968v1.016zm10 4.063c-1.121.31-2.177.67-3 1.015v-1.064a35.914 35.914 0 0 1 3-.968v1.017zm0-3.048c-1.088.299-2.122.64-3 .968v1.064a25.904 25.904 0 0 1 3-1.015v-1.017zm-3-3.105v1.064a25.904 25.904 0 0 1 3-1.015V6.864c-1.088.299-2.122.64-3 .968zm3 1.074c-1.088.299-2.122.64-3 .968v1.064a25.904 25.904 0 0 1 3-1.015V8.906z"/></svg>