<svg xmlns="http://www.w3.org/2000/svg" width="24" height="24"><path d="M6.02 7.389a2.238 2.238 0 0 1 3.442 1.182 2.088 2.088 0 0 0-1.281-.437c-.458 0-.919.147-1.321.434-.799.57-1.153 1.541-.845 2.461a2.238 2.238 0 0 1 .005-3.64zm3.741 12.77c.994.334 4.071 1.186 7.635 3.841L24 19.29c-1.713-2.402-1.241-4.082-2.943-6.468-1.162-1.628-1.827-1.654-3.037-1.432l.599.84c.361.507-.405 1.05-.764.544l-.534-.75c-.435-.609-1.279-.229-2.053-.051l.727 1.019c.36.505-.403 1.051-.764.544l-.629-.882c-.446-.626-1.318-.208-2.095-.01l.769 1.078c.363.508-.405 1.049-.764.544L9.394 9.9c-.968-1.358-3.088.083-2.086 1.489l4.605 6.458c-.494-.183-1.363-.349-1.93-.349-1.754 0-2.429 1.92-.222 2.661zM6.475 18H2V4h10v6.688l2-.471V2a2 2 0 0 0-2-2H2a2 2 0 0 0-2 2v18.678C-.001 22.891 3.503 24 7.005 24c1.812 0 3.619-.299 4.944-.894C9.828 22.16 5.571 21.53 6.475 18z"/></svg>