<svg width="24" height="24" xmlns="http://www.w3.org/2000/svg" fill-rule="evenodd" clip-rule="evenodd"><path d="M16.112 20.985H7.895c-1.912-.062 8.217 0 8.217 0M9.083 2.295A2.993 2.993 0 0 1 11.987 0a2.998 2.998 0 0 1 2.934 2.308c2.108.516 4.063 1.824 4.722 4.939.28 1.321.539 2.995.754 4.756.8.043 1.873.262 2.107 1.585.317 1.793.496 4.021.496 5.325 0 1.646-1.128 2.053-2.001 2.122-.048 1.708-.737 2.902-2.999 2.948-1.632.033-3.812.008-5.996 0-2.185.008-4.364.033-5.996 0-2.263-.046-2.951-1.24-3-2.948C2.135 20.968 1 20.564 1 18.914c0-1.307.18-3.54.496-5.326.234-1.327 1.314-1.544 2.114-1.585.213-1.768.466-3.439.733-4.735.649-3.154 2.59-4.465 4.74-4.973M19 17.988c-.012 2.008-.987 2.939-2.888 2.997-2.739.026-5.478.028-8.217 0-1.912-.062-2.882-1.188-2.895-2.997v-3.997h14v3.997zm-8-2.998v2.998a1 1 0 0 0 2 0V14.99h5v2.995c0 1.438-.547 1.963-1.908 2-2.725.026-5.451.028-8.176 0-1.21-.035-1.862-.57-1.916-1.889-.024-1.035 0-2.071 0-3.106h5zm.459-9.71c-1.876.104-2.858.83-3.466 2.298-.489 1.182-.648 2.649-.729 3.915-.061.623-.953.625-.999-.019.014-.657.163-2.022.401-3.012.435-1.81 1.27-3.278 3.055-3.879 1.25-.422 3.247-.414 4.462-.037 1.92.592 2.786 2.167 3.21 4.132.2.93.323 2.155.336 2.826a.5.5 0 0 1-.994.055c-.101-1-.091-1.99-.485-3.325-.607-2.063-1.718-2.86-3.775-2.959l.692 2.385a1.195 1.195 0 0 1-2.339.025l.631-2.405zM12 7.323a.597.597 0 1 1 0 1.193.597.597 0 0 1 0-1.193m1.791-5.221A1.99 1.99 0 0 0 11.994 1a1.988 1.988 0 0 0-1.781 1.096 15.917 15.917 0 0 1 3.578.006"/></svg>